<?xml version="1.0" encoding="UTF-8"?>
<svg version="1.1" xmlns="http://www.w3.org/2000/svg" width="24" height="22">
<path d="M0 0 C0.66 0 1.32 0 2 0 C3.32983485 1.98570578 4.43978459 4.0559931 5.5859375 6.15234375 C7.27140224 8.35462226 8.30354986 8.63856094 11 9 C11 10.32 11 11.64 11 13 C10.071875 13.37125 9.14375 13.7425 8.1875 14.125 C4.4739697 16.30942959 3.57312496 18.06718759 2 22 C1.01 21.67 0.02 21.34 -1 21 C-0.125 16.25 -0.125 16.25 1 14 C-5.93 13.505 -5.93 13.505 -13 13 C-13 11.68 -13 10.36 -13 9 C-8.38 8.67 -3.76 8.34 1 8 C0.34 6.68 -0.32 5.36 -1 4 C-0.625 1.75 -0.625 1.75 0 0 Z " fill="#FFFFFF" transform="translate(13,0)"/>
</svg>
